<mxfile host="app.diagrams.net" agent="Mozilla/5.0 (Windows NT 10.0; Win64; x64) AppleWebKit/537.36 (KHTML, like Gecko) Chrome/139.0.0.0 Safari/537.36" version="28.2.3">
  <diagram name="Page-1" id="Vj1T31qgjQq3DLZXzhmD">
    <mxGraphModel dx="2500" dy="2104" grid="1" gridSize="10" guides="1" tooltips="1" connect="1" arrows="1" fold="1" page="1" pageScale="1" pageWidth="827" pageHeight="1169" math="0" shadow="0">
      <root>
        <mxCell id="0" />
        <mxCell id="1" parent="0" />
        <mxCell id="lrz969mG2s1heAxVIsgZ-2" value="Début" style="ellipse;whiteSpace=wrap;html=1;aspect=fixed;" vertex="1" parent="1">
          <mxGeometry x="130" y="80" width="60" height="60" as="geometry" />
        </mxCell>
        <mxCell id="lrz969mG2s1heAxVIsgZ-3" value="" style="shape=link;html=1;rounded=0;" edge="1" parent="1">
          <mxGeometry width="100" relative="1" as="geometry">
            <mxPoint x="120" y="150" as="sourcePoint" />
            <mxPoint x="2690" y="140" as="targetPoint" />
          </mxGeometry>
        </mxCell>
        <mxCell id="lrz969mG2s1heAxVIsgZ-4" value="&lt;font style=&quot;color: rgb(255, 179, 102);&quot;&gt;Commercial&lt;/font&gt;" style="text;html=1;align=center;verticalAlign=middle;resizable=0;points=[];autosize=1;strokeColor=none;fillColor=none;" vertex="1" parent="1">
          <mxGeometry x="105" y="40" width="90" height="30" as="geometry" />
        </mxCell>
        <mxCell id="lrz969mG2s1heAxVIsgZ-5" value="&lt;font style=&quot;color: rgb(255, 51, 51);&quot;&gt;Chef de projet&lt;/font&gt;" style="text;html=1;align=center;verticalAlign=middle;resizable=0;points=[];autosize=1;strokeColor=none;fillColor=none;" vertex="1" parent="1">
          <mxGeometry x="115" y="210" width="100" height="30" as="geometry" />
        </mxCell>
        <mxCell id="lrz969mG2s1heAxVIsgZ-6" value="&lt;font style=&quot;color: rgb(0, 0, 255);&quot;&gt;Développeur&lt;/font&gt;" style="text;html=1;align=center;verticalAlign=middle;resizable=0;points=[];autosize=1;strokeColor=none;fillColor=none;" vertex="1" parent="1">
          <mxGeometry x="115" y="342.5" width="90" height="30" as="geometry" />
        </mxCell>
        <mxCell id="lrz969mG2s1heAxVIsgZ-7" value="&lt;font style=&quot;color: rgb(128, 255, 0);&quot;&gt;Client / Support&lt;/font&gt;" style="text;html=1;align=center;verticalAlign=middle;resizable=0;points=[];autosize=1;strokeColor=none;fillColor=none;" vertex="1" parent="1">
          <mxGeometry x="110" y="505" width="110" height="30" as="geometry" />
        </mxCell>
        <mxCell id="lrz969mG2s1heAxVIsgZ-8" value="" style="shape=link;html=1;rounded=0;" edge="1" parent="1">
          <mxGeometry width="100" relative="1" as="geometry">
            <mxPoint x="120" y="300" as="sourcePoint" />
            <mxPoint x="2690" y="300" as="targetPoint" />
          </mxGeometry>
        </mxCell>
        <mxCell id="lrz969mG2s1heAxVIsgZ-9" value="" style="shape=link;html=1;rounded=0;" edge="1" parent="1">
          <mxGeometry width="100" relative="1" as="geometry">
            <mxPoint x="121" y="450" as="sourcePoint" />
            <mxPoint x="2690" y="450" as="targetPoint" />
          </mxGeometry>
        </mxCell>
        <mxCell id="lrz969mG2s1heAxVIsgZ-11" value="" style="endArrow=classic;html=1;rounded=0;" edge="1" parent="1">
          <mxGeometry width="50" height="50" relative="1" as="geometry">
            <mxPoint x="200" y="109.5" as="sourcePoint" />
            <mxPoint x="230" y="110" as="targetPoint" />
            <Array as="points" />
          </mxGeometry>
        </mxCell>
        <mxCell id="lrz969mG2s1heAxVIsgZ-12" value="Demande Client" style="rounded=0;whiteSpace=wrap;html=1;fillColor=#fff2cc;strokeColor=#d6b656;" vertex="1" parent="1">
          <mxGeometry x="240" y="92.5" width="80" height="35" as="geometry" />
        </mxCell>
        <mxCell id="lrz969mG2s1heAxVIsgZ-13" value="" style="endArrow=classic;html=1;rounded=0;" edge="1" parent="1">
          <mxGeometry width="50" height="50" relative="1" as="geometry">
            <mxPoint x="330" y="111.25" as="sourcePoint" />
            <mxPoint x="380" y="110" as="targetPoint" />
            <Array as="points" />
          </mxGeometry>
        </mxCell>
        <mxCell id="lrz969mG2s1heAxVIsgZ-14" value="Proposition / Devis" style="rounded=0;whiteSpace=wrap;html=1;fillColor=#fff2cc;strokeColor=#d6b656;" vertex="1" parent="1">
          <mxGeometry x="390" y="92.5" width="80" height="35" as="geometry" />
        </mxCell>
        <mxCell id="lrz969mG2s1heAxVIsgZ-15" value="NON" style="html=1;shadow=0;dashed=0;align=center;verticalAlign=middle;shape=mxgraph.arrows2.arrow;dy=0;dx=10;notch=0;rotation=90;" vertex="1" parent="1">
          <mxGeometry x="560.84" y="40" width="50" height="30" as="geometry" />
        </mxCell>
        <mxCell id="lrz969mG2s1heAxVIsgZ-16" value="" style="endArrow=classic;html=1;rounded=0;" edge="1" parent="1">
          <mxGeometry width="50" height="50" relative="1" as="geometry">
            <mxPoint x="480" y="110" as="sourcePoint" />
            <mxPoint x="530" y="110" as="targetPoint" />
          </mxGeometry>
        </mxCell>
        <mxCell id="lrz969mG2s1heAxVIsgZ-17" value="OK" style="html=1;whiteSpace=wrap;aspect=fixed;shape=isoRectangle;" vertex="1" parent="1">
          <mxGeometry x="540" y="82.5" width="91.67" height="55" as="geometry" />
        </mxCell>
        <mxCell id="lrz969mG2s1heAxVIsgZ-18" value="" style="endArrow=classic;html=1;rounded=0;entryX=0.5;entryY=0;entryDx=0;entryDy=0;" edge="1" parent="1" target="lrz969mG2s1heAxVIsgZ-14">
          <mxGeometry width="50" height="50" relative="1" as="geometry">
            <mxPoint x="570" y="50" as="sourcePoint" />
            <mxPoint x="170" y="50" as="targetPoint" />
            <Array as="points">
              <mxPoint x="430" y="50" />
            </Array>
          </mxGeometry>
        </mxCell>
        <mxCell id="lrz969mG2s1heAxVIsgZ-19" value="OUI" style="html=1;shadow=0;dashed=0;align=center;verticalAlign=middle;shape=mxgraph.arrows2.arrow;dy=0;dx=10;notch=0;rotation=-90;" vertex="1" parent="1">
          <mxGeometry x="560.84" y="150" width="50" height="30" as="geometry" />
        </mxCell>
        <mxCell id="lrz969mG2s1heAxVIsgZ-20" value="" style="endArrow=classic;html=1;rounded=0;" edge="1" parent="1">
          <mxGeometry width="50" height="50" relative="1" as="geometry">
            <mxPoint x="600" y="190" as="sourcePoint" />
            <mxPoint x="630" y="240" as="targetPoint" />
          </mxGeometry>
        </mxCell>
        <mxCell id="lrz969mG2s1heAxVIsgZ-21" value="EQUIPE" style="rounded=0;whiteSpace=wrap;html=1;strokeColor=#FF3333;fillColor=#FF3333;" vertex="1" parent="1">
          <mxGeometry x="610" y="240" width="80" height="35" as="geometry" />
        </mxCell>
        <mxCell id="lrz969mG2s1heAxVIsgZ-22" value="" style="endArrow=classic;html=1;rounded=0;" edge="1" parent="1">
          <mxGeometry width="50" height="50" relative="1" as="geometry">
            <mxPoint x="700" y="260" as="sourcePoint" />
            <mxPoint x="760" y="260" as="targetPoint" />
          </mxGeometry>
        </mxCell>
        <mxCell id="lrz969mG2s1heAxVIsgZ-23" value="Cahier des Charges" style="rounded=0;whiteSpace=wrap;html=1;fillColor=#FF3333;" vertex="1" parent="1">
          <mxGeometry x="770" y="240" width="80" height="35" as="geometry" />
        </mxCell>
        <mxCell id="lrz969mG2s1heAxVIsgZ-24" value="" style="endArrow=classic;html=1;rounded=0;" edge="1" parent="1">
          <mxGeometry width="50" height="50" relative="1" as="geometry">
            <mxPoint x="860" y="260" as="sourcePoint" />
            <mxPoint x="890" y="340" as="targetPoint" />
            <Array as="points">
              <mxPoint x="890" y="260" />
            </Array>
          </mxGeometry>
        </mxCell>
        <mxCell id="lrz969mG2s1heAxVIsgZ-25" value="UI/UX" style="rounded=0;whiteSpace=wrap;html=1;fillColor=#0050ef;fontColor=#ffffff;strokeColor=#001DBC;" vertex="1" parent="1">
          <mxGeometry x="850" y="340" width="80" height="35" as="geometry" />
        </mxCell>
        <mxCell id="lrz969mG2s1heAxVIsgZ-26" value="NON" style="html=1;shadow=0;dashed=0;align=center;verticalAlign=middle;shape=mxgraph.arrows2.arrow;dy=0;dx=10;notch=0;rotation=90;" vertex="1" parent="1">
          <mxGeometry x="1060.83" y="228.32999999999998" width="50" height="30" as="geometry" />
        </mxCell>
        <mxCell id="lrz969mG2s1heAxVIsgZ-27" value="OUI" style="html=1;shadow=0;dashed=0;align=center;verticalAlign=middle;shape=mxgraph.arrows2.arrow;dy=0;dx=10;notch=0;rotation=-90;" vertex="1" parent="1">
          <mxGeometry x="1062.5" y="337.5" width="49.17" height="32.5" as="geometry" />
        </mxCell>
        <mxCell id="lrz969mG2s1heAxVIsgZ-28" value="Validation" style="html=1;whiteSpace=wrap;aspect=fixed;shape=isoRectangle;" vertex="1" parent="1">
          <mxGeometry x="1040" y="270.83" width="91.67" height="55" as="geometry" />
        </mxCell>
        <mxCell id="lrz969mG2s1heAxVIsgZ-29" value="" style="endArrow=classic;html=1;rounded=0;entryX=0.205;entryY=0.741;entryDx=0;entryDy=0;entryPerimeter=0;" edge="1" parent="1" target="lrz969mG2s1heAxVIsgZ-28">
          <mxGeometry width="50" height="50" relative="1" as="geometry">
            <mxPoint x="940" y="367.5" as="sourcePoint" />
            <mxPoint x="980" y="360" as="targetPoint" />
          </mxGeometry>
        </mxCell>
        <mxCell id="lrz969mG2s1heAxVIsgZ-30" value="" style="endArrow=classic;html=1;rounded=0;" edge="1" parent="1">
          <mxGeometry width="50" height="50" relative="1" as="geometry">
            <mxPoint x="1070" y="240" as="sourcePoint" />
            <mxPoint x="890" y="340" as="targetPoint" />
          </mxGeometry>
        </mxCell>
        <mxCell id="lrz969mG2s1heAxVIsgZ-31" value="" style="endArrow=classic;html=1;rounded=0;" edge="1" parent="1">
          <mxGeometry width="50" height="50" relative="1" as="geometry">
            <mxPoint x="1110.83" y="360" as="sourcePoint" />
            <mxPoint x="1210.83" y="360" as="targetPoint" />
          </mxGeometry>
        </mxCell>
        <mxCell id="lrz969mG2s1heAxVIsgZ-32" value="Développement / Intégration" style="rounded=0;whiteSpace=wrap;html=1;fillColor=#3333FF;fontColor=#FFFFFF;" vertex="1" parent="1">
          <mxGeometry x="1220" y="340" width="120" height="40" as="geometry" />
        </mxCell>
        <mxCell id="lrz969mG2s1heAxVIsgZ-33" value="Phase de test" style="rounded=0;whiteSpace=wrap;html=1;fillColor=#3333FF;fontColor=#FFFFFF;" vertex="1" parent="1">
          <mxGeometry x="1430" y="340" width="120" height="40" as="geometry" />
        </mxCell>
        <mxCell id="lrz969mG2s1heAxVIsgZ-34" value="" style="endArrow=classic;html=1;rounded=0;" edge="1" parent="1">
          <mxGeometry width="50" height="50" relative="1" as="geometry">
            <mxPoint x="1360" y="359.5" as="sourcePoint" />
            <mxPoint x="1410" y="359.5" as="targetPoint" />
          </mxGeometry>
        </mxCell>
        <mxCell id="lrz969mG2s1heAxVIsgZ-36" value="NON" style="html=1;shadow=0;dashed=0;align=center;verticalAlign=middle;shape=mxgraph.arrows2.arrow;dy=0;dx=10;notch=0;rotation=90;" vertex="1" parent="1">
          <mxGeometry x="1470" y="289.16999999999996" width="50" height="30" as="geometry" />
        </mxCell>
        <mxCell id="lrz969mG2s1heAxVIsgZ-37" value="OUI" style="html=1;shadow=0;dashed=0;align=center;verticalAlign=middle;shape=mxgraph.arrows2.arrow;dy=0;dx=10;notch=0;rotation=-90;" vertex="1" parent="1">
          <mxGeometry x="1471.67" y="398.34000000000003" width="49.17" height="32.5" as="geometry" />
        </mxCell>
        <mxCell id="lrz969mG2s1heAxVIsgZ-38" value="" style="endArrow=classic;html=1;rounded=0;exitX=0;exitY=0;exitDx=20;exitDy=30;exitPerimeter=0;entryX=0.5;entryY=0;entryDx=0;entryDy=0;" edge="1" parent="1" source="lrz969mG2s1heAxVIsgZ-36" target="lrz969mG2s1heAxVIsgZ-32">
          <mxGeometry width="50" height="50" relative="1" as="geometry">
            <mxPoint x="1370" y="300" as="sourcePoint" />
            <mxPoint x="1420" y="250" as="targetPoint" />
          </mxGeometry>
        </mxCell>
        <mxCell id="lrz969mG2s1heAxVIsgZ-39" value="" style="endArrow=classic;html=1;rounded=0;" edge="1" parent="1">
          <mxGeometry width="50" height="50" relative="1" as="geometry">
            <mxPoint x="1490" y="440" as="sourcePoint" />
            <mxPoint x="1400" y="510" as="targetPoint" />
          </mxGeometry>
        </mxCell>
        <mxCell id="lrz969mG2s1heAxVIsgZ-40" value="Hébergement&amp;nbsp;" style="rounded=0;whiteSpace=wrap;html=1;fillColor=#60a917;fontColor=#ffffff;strokeColor=#2D7600;" vertex="1" parent="1">
          <mxGeometry x="1330" y="520" width="120" height="40" as="geometry" />
        </mxCell>
        <mxCell id="lrz969mG2s1heAxVIsgZ-41" value="NON" style="html=1;shadow=0;dashed=0;align=center;verticalAlign=middle;shape=mxgraph.arrows2.arrow;dy=0;dx=10;notch=0;rotation=90;" vertex="1" parent="1">
          <mxGeometry x="1570" y="470" width="50" height="30" as="geometry" />
        </mxCell>
        <mxCell id="lrz969mG2s1heAxVIsgZ-42" value="OUI" style="html=1;shadow=0;dashed=0;align=center;verticalAlign=middle;shape=mxgraph.arrows2.arrow;dy=0;dx=10;notch=0;rotation=-90;" vertex="1" parent="1">
          <mxGeometry x="1570" y="580" width="50" height="30" as="geometry" />
        </mxCell>
        <mxCell id="lrz969mG2s1heAxVIsgZ-43" value="OK" style="html=1;whiteSpace=wrap;aspect=fixed;shape=isoRectangle;" vertex="1" parent="1">
          <mxGeometry x="1549.17" y="512.5" width="91.67" height="55" as="geometry" />
        </mxCell>
        <mxCell id="lrz969mG2s1heAxVIsgZ-44" value="" style="endArrow=classic;html=1;rounded=0;" edge="1" parent="1">
          <mxGeometry width="50" height="50" relative="1" as="geometry">
            <mxPoint x="1460" y="540" as="sourcePoint" />
            <mxPoint x="1530" y="540" as="targetPoint" />
          </mxGeometry>
        </mxCell>
        <mxCell id="lrz969mG2s1heAxVIsgZ-45" value="" style="endArrow=classic;html=1;rounded=0;" edge="1" parent="1" target="lrz969mG2s1heAxVIsgZ-46">
          <mxGeometry width="50" height="50" relative="1" as="geometry">
            <mxPoint x="1260" y="340" as="sourcePoint" />
            <mxPoint x="1330" y="260" as="targetPoint" />
          </mxGeometry>
        </mxCell>
        <mxCell id="lrz969mG2s1heAxVIsgZ-46" value="Documentation" style="rounded=0;whiteSpace=wrap;html=1;fillColor=#FF3333;" vertex="1" parent="1">
          <mxGeometry x="1290" y="210" width="90" height="40" as="geometry" />
        </mxCell>
        <mxCell id="lrz969mG2s1heAxVIsgZ-47" value="Mise en ligne local&amp;nbsp;" style="rounded=0;whiteSpace=wrap;html=1;fillColor=#FF3333;" vertex="1" parent="1">
          <mxGeometry x="1760" y="179.5" width="80" height="48" as="geometry" />
        </mxCell>
        <mxCell id="lrz969mG2s1heAxVIsgZ-48" value="" style="endArrow=classic;html=1;rounded=0;exitX=0;exitY=0;exitDx=20;exitDy=30;exitPerimeter=0;entryX=0.5;entryY=0;entryDx=0;entryDy=0;" edge="1" parent="1" source="lrz969mG2s1heAxVIsgZ-41" target="lrz969mG2s1heAxVIsgZ-40">
          <mxGeometry width="50" height="50" relative="1" as="geometry">
            <mxPoint x="1530" y="490" as="sourcePoint" />
            <mxPoint x="1440" y="480" as="targetPoint" />
          </mxGeometry>
        </mxCell>
        <mxCell id="lrz969mG2s1heAxVIsgZ-49" value="" style="endArrow=classic;html=1;rounded=0;entryX=0.5;entryY=1;entryDx=0;entryDy=0;" edge="1" parent="1" target="lrz969mG2s1heAxVIsgZ-47">
          <mxGeometry width="50" height="50" relative="1" as="geometry">
            <mxPoint x="1610" y="610" as="sourcePoint" />
            <mxPoint x="1660" y="560" as="targetPoint" />
          </mxGeometry>
        </mxCell>
        <mxCell id="lrz969mG2s1heAxVIsgZ-50" value="" style="endArrow=classic;html=1;rounded=0;" edge="1" parent="1">
          <mxGeometry width="50" height="50" relative="1" as="geometry">
            <mxPoint x="1840" y="207.5" as="sourcePoint" />
            <mxPoint x="1950" y="290" as="targetPoint" />
          </mxGeometry>
        </mxCell>
        <mxCell id="lrz969mG2s1heAxVIsgZ-52" value="NON" style="html=1;shadow=0;dashed=0;align=center;verticalAlign=middle;shape=mxgraph.arrows2.arrow;dy=0;dx=10;notch=0;rotation=90;" vertex="1" parent="1">
          <mxGeometry x="1970.84" y="227.5" width="50" height="30" as="geometry" />
        </mxCell>
        <mxCell id="lrz969mG2s1heAxVIsgZ-53" value="Vérifaction" style="html=1;whiteSpace=wrap;aspect=fixed;shape=isoRectangle;" vertex="1" parent="1">
          <mxGeometry x="1950.0099999999998" y="270" width="91.67" height="55" as="geometry" />
        </mxCell>
        <mxCell id="lrz969mG2s1heAxVIsgZ-54" value="OUI" style="html=1;shadow=0;dashed=0;align=center;verticalAlign=middle;shape=mxgraph.arrows2.arrow;dy=0;dx=10;notch=0;rotation=-90;" vertex="1" parent="1">
          <mxGeometry x="1970.84" y="337.5" width="50" height="30" as="geometry" />
        </mxCell>
        <mxCell id="lrz969mG2s1heAxVIsgZ-55" value="" style="endArrow=classic;html=1;rounded=0;entryX=1;entryY=0.5;entryDx=0;entryDy=0;" edge="1" parent="1" target="lrz969mG2s1heAxVIsgZ-33">
          <mxGeometry width="50" height="50" relative="1" as="geometry">
            <mxPoint x="1980" y="240" as="sourcePoint" />
            <mxPoint x="1670" y="340" as="targetPoint" />
            <Array as="points">
              <mxPoint x="1890" y="160" />
              <mxPoint x="1690" y="160" />
            </Array>
          </mxGeometry>
        </mxCell>
        <mxCell id="lrz969mG2s1heAxVIsgZ-56" value="" style="endArrow=classic;html=1;rounded=0;exitX=0;exitY=0;exitDx=20;exitDy=30;exitPerimeter=0;" edge="1" parent="1" source="lrz969mG2s1heAxVIsgZ-54">
          <mxGeometry width="50" height="50" relative="1" as="geometry">
            <mxPoint x="2030" y="277.5" as="sourcePoint" />
            <mxPoint x="2130" y="267.5" as="targetPoint" />
          </mxGeometry>
        </mxCell>
        <mxCell id="lrz969mG2s1heAxVIsgZ-57" value="Mise en ligne&amp;nbsp;" style="rounded=0;whiteSpace=wrap;html=1;fillColor=#FF3333;" vertex="1" parent="1">
          <mxGeometry x="2130" y="247.5" width="90" height="36.5" as="geometry" />
        </mxCell>
        <mxCell id="lrz969mG2s1heAxVIsgZ-59" value="" style="endArrow=classic;html=1;rounded=0;" edge="1" parent="1">
          <mxGeometry width="50" height="50" relative="1" as="geometry">
            <mxPoint x="2230" y="270" as="sourcePoint" />
            <mxPoint x="2270" y="535" as="targetPoint" />
            <Array as="points">
              <mxPoint x="2270" y="265" />
            </Array>
          </mxGeometry>
        </mxCell>
        <mxCell id="lrz969mG2s1heAxVIsgZ-60" value="SEO / Maintenance" style="rounded=0;whiteSpace=wrap;html=1;" vertex="1" parent="1">
          <mxGeometry x="2230" y="535" width="90" height="50" as="geometry" />
        </mxCell>
        <mxCell id="lrz969mG2s1heAxVIsgZ-61" value="" style="endArrow=classic;html=1;rounded=0;entryX=0.5;entryY=1;entryDx=0;entryDy=0;" edge="1" parent="1" target="lrz969mG2s1heAxVIsgZ-62">
          <mxGeometry width="50" height="50" relative="1" as="geometry">
            <mxPoint x="2270" y="265" as="sourcePoint" />
            <mxPoint x="2370" y="85" as="targetPoint" />
          </mxGeometry>
        </mxCell>
        <mxCell id="lrz969mG2s1heAxVIsgZ-62" value="Paiement&amp;nbsp;" style="rounded=0;whiteSpace=wrap;html=1;" vertex="1" parent="1">
          <mxGeometry x="2320" y="35" width="100" height="45" as="geometry" />
        </mxCell>
        <mxCell id="lrz969mG2s1heAxVIsgZ-63" value="" style="endArrow=classic;html=1;rounded=0;" edge="1" parent="1">
          <mxGeometry width="50" height="50" relative="1" as="geometry">
            <mxPoint x="2420" y="65" as="sourcePoint" />
            <mxPoint x="2510" y="65" as="targetPoint" />
          </mxGeometry>
        </mxCell>
        <mxCell id="lrz969mG2s1heAxVIsgZ-64" value="FIN" style="ellipse;whiteSpace=wrap;html=1;aspect=fixed;fillColor=#a20025;fontColor=#ffffff;strokeColor=#6F0000;" vertex="1" parent="1">
          <mxGeometry x="2510" y="25" width="80" height="80" as="geometry" />
        </mxCell>
        <mxCell id="lrz969mG2s1heAxVIsgZ-65" value="" style="endArrow=classic;html=1;rounded=0;" edge="1" parent="1">
          <mxGeometry width="50" height="50" relative="1" as="geometry">
            <mxPoint x="430" y="50" as="sourcePoint" />
            <mxPoint x="430" y="-20" as="targetPoint" />
          </mxGeometry>
        </mxCell>
        <mxCell id="lrz969mG2s1heAxVIsgZ-66" value="Fin" style="ellipse;whiteSpace=wrap;html=1;aspect=fixed;fillColor=#990000;" vertex="1" parent="1">
          <mxGeometry x="395" y="-90" width="70" height="70" as="geometry" />
        </mxCell>
      </root>
    </mxGraphModel>
  </diagram>
</mxfile>
